# xmcd CD database file
#
# Track frame offsets:
#	150
#	22062
#	42087
#	65937
#	78387
#	92637
#	107262
#	125637
#	145962
#	169287
#	192537
#	206785
#	225127
#	238437
#	260337
#
# Disc length: 3846 seconds
#
# Revision: 0
# Processed by: cddbd v1.4PL0 Copyright (c) Steve Scherf et al.
# Submitted via: Feurio! 1.63 - http://www.feurio.com
#
DISCID=d90f040f
DTITLE=Dave Kelly Band - Standing At The Crossroads
DYEAR=1987
DGENRE=Blues
TTITLE0=One Way Out
TTITLE1=When I Itch
TTITLE2=It Hurts Me Too
TTITLE3=Big River
TTITLE4=Okie
TTITLE5=Soke Stack Lightning
TTITLE6=Worried Man
TTITLE7=Cross Roads
TTITLE8=Leaving
TTITLE9=The Weight
TTITLE10=Grits And Groceries I
TTITLE11=Back In The Blues
TTITLE12=Grits And Groceries II
TTITLE13=To Love Somebody
TTITLE14=Poor Man
EXTD=
EXTT0=
EXTT1=
EXTT2=
EXTT3=
EXTT4=
EXTT5=
EXTT6=
EXTT7=
EXTT8=
EXTT9=
EXTT10=
EXTT11=
EXTT12=
EXTT13=
EXTT14=
PLAYORDER=
